<svg xmlns:mydata="http://www.w3.org/2000/svg" mydata:contrastcolor="071a27" mydata:template="Contrast" mydata:presentation="2.5" mydata:layouttype="undefined" mydata:specialfontid="undefined" mydata:id1="856" mydata:id2="292" mydata:companyname="vitalis" mydata:companytagline="" version="1.1" xmlns="http://www.w3.org/2000/svg" xmlns:xlink="http://www.w3.org/1999/xlink" viewBox="0 0 550 470" width="550"  height="470" ><g fill="none" fill-rule="none" stroke="none" stroke-width="1" stroke-linecap="butt" stroke-linejoin="miter" stroke-miterlimit="10" stroke-dasharray="" stroke-dashoffset="0" font-family="none" font-weight="none" font-size="none" text-anchor="none" style="mix-blend-mode: normal"><g data-paper-data="{&quot;isGlobalGroup&quot;:true,&quot;bounds&quot;:{&quot;x&quot;:96.41627879278488,&quot;y&quot;:115,&quot;width&quot;:357.1674424144303,&quot;height&quot;:240}}" fill="none"><g data-paper-data="{&quot;isPrimaryText&quot;:true}" fill-rule="nonzero" fill="none"><path d="M118.73974,349.88788c2.17739,3.12407 5.68014,5.01745 9.46689,5.01745c3.78676,0 7.38418,-1.89338 9.46689,-5.01745l21.86852,-32.85012c0.85202,-1.2307 0.56801,-3.02941 -0.75735,-3.88143c-1.32536,-0.85202 -3.02941,-0.47334 -3.88143,0.75735l-21.86852,32.85012c-1.13603,1.60937 -2.84007,2.55606 -4.82812,2.55606c-1.89338,0 -3.69209,-0.94669 -4.73345,-2.55606l-21.86852,-32.85012c-0.85202,-1.2307 -2.65073,-1.60937 -3.88143,-0.75735c-1.32536,0.85202 -1.70404,2.65073 -0.85202,3.88143z" data-paper-data="{&quot;glyphName&quot;:&quot;V&quot;,&quot;glyphIndex&quot;:0,&quot;firstGlyphOfWord&quot;:true,&quot;word&quot;:1}" fill="#80DBE4"></path><path d="M169.10361,354.90533c1.5147,0 2.7454,-1.2307 2.7454,-2.84007v-36.16353c0,-1.60937 -1.2307,-2.84007 -2.7454,-2.84007c-1.60937,0 -2.84007,1.2307 -2.84007,2.84007v36.16353c0,1.60937 1.2307,2.84007 2.84007,2.84007z" data-paper-data="{&quot;glyphName&quot;:&quot;I&quot;,&quot;glyphIndex&quot;:1,&quot;word&quot;:1}" fill="#80DBE4"></path><path d="M209.81125,355c1.5147,0 2.84007,-1.2307 2.84007,-2.7454v-33.41813h26.12862c1.5147,0 2.84007,-1.32536 2.84007,-2.84007c0,-1.60937 -1.32536,-2.84007 -2.84007,-2.84007h-57.93738c-1.60937,0 -2.84007,1.2307 -2.84007,2.84007c0,1.5147 1.2307,2.84007 2.84007,2.84007h26.12862v33.41813c0,1.5147 1.2307,2.7454 2.84007,2.7454z" data-paper-data="{&quot;glyphName&quot;:&quot;T&quot;,&quot;glyphIndex&quot;:2,&quot;word&quot;:1}" fill="#80DBE4"></path><path d="M239.91596,354.43199c1.32536,0.85202 3.02941,0.47334 3.97609,-0.85202l21.48985,-32.2821c1.13603,-1.70404 3.02941,-2.7454 5.11212,-2.7454c2.08272,0 3.88143,1.04136 5.11212,2.7454l13.72699,20.73249h-26.12862c-1.5147,0 -2.7454,1.2307 -2.7454,2.7454c0,1.60937 1.2307,2.84007 2.7454,2.84007h29.06336c0.28401,0 0.47334,0 0.75735,-0.09467l4.07076,6.05881c0.56801,0.85202 1.42003,1.32536 2.36672,1.32536c0.56801,0 1.13603,-0.18934 1.60937,-0.47334c1.2307,-0.85202 1.60937,-2.65073 0.75735,-3.97609l-21.58451,-32.2821c-2.17739,-3.31341 -5.7748,-5.20679 -9.7509,-5.20679c-3.97609,0 -7.57351,1.89338 -9.7509,5.20679l-21.58451,32.2821c-0.85202,1.32536 -0.47334,3.12407 0.75735,3.97609z" data-paper-data="{&quot;glyphName&quot;:&quot;A&quot;,&quot;glyphIndex&quot;:3,&quot;word&quot;:1}" fill="#80DBE4"></path><path d="M323.8873,354.90533h45.34641c1.5147,0 2.84007,-1.2307 2.84007,-2.84007c0,-1.5147 -1.32536,-2.84007 -2.84007,-2.84007h-45.34641c-5.39613,0 -9.84557,-4.35477 -9.84557,-9.84557v-23.57256c0,-1.5147 -1.2307,-2.7454 -2.84007,-2.7454c-1.5147,0 -2.7454,1.2307 -2.7454,2.7454v23.57256c0,8.5202 6.91083,15.5257 15.43103,15.5257z" data-paper-data="{&quot;glyphName&quot;:&quot;L&quot;,&quot;glyphIndex&quot;:4,&quot;word&quot;:1}" fill="#80DBE4"></path><path d="M381.06733,354.90533c1.5147,0 2.7454,-1.2307 2.7454,-2.84007v-36.16353c0,-1.60937 -1.2307,-2.84007 -2.7454,-2.84007c-1.60937,0 -2.84007,1.2307 -2.84007,2.84007v36.16353c0,1.60937 1.2307,2.84007 2.84007,2.84007z" data-paper-data="{&quot;glyphName&quot;:&quot;I&quot;,&quot;glyphIndex&quot;:5,&quot;word&quot;:1}" fill="#80DBE4"></path><path d="M439.85673,349.31986h-47.05045c-1.60937,0 -2.84007,1.2307 -2.84007,2.84007c0,1.5147 1.2307,2.7454 2.84007,2.7454h47.05045c7.57351,0 13.72699,-6.05881 13.72699,-13.63232c0,-7.57351 -6.15348,-13.72699 -13.72699,-13.72699h-39.85562c-2.36672,0 -4.35477,-1.98805 -4.35477,-4.44944c0,-2.36672 1.98805,-4.35477 4.35477,-4.35477h50.74254c1.60937,0 2.84007,-1.32536 2.84007,-2.84007c0,-1.60937 -1.2307,-2.84007 -2.84007,-2.84007h-50.74254c-5.4908,0 -10.03491,4.54411 -10.03491,10.03491c0,5.58547 4.54411,10.12957 10.03491,10.12957h39.85562c4.44944,0 8.04686,3.59742 8.04686,8.04686c0,4.44944 -3.59742,8.04686 -8.04686,8.04686z" data-paper-data="{&quot;glyphName&quot;:&quot;S&quot;,&quot;glyphIndex&quot;:6,&quot;lastGlyphOfWord&quot;:true,&quot;word&quot;:1}" fill="#80DBE4"></path></g><g data-paper-data="{&quot;fillRule&quot;:&quot;nonzero&quot;,&quot;fillRuleOriginal&quot;:&quot;nonzero&quot;,&quot;isIcon&quot;:true,&quot;iconStyle&quot;:&quot;standalone&quot;,&quot;selectedEffects&quot;:{&quot;container&quot;:&quot;&quot;,&quot;transformation&quot;:&quot;&quot;,&quot;pattern&quot;:&quot;&quot;},&quot;bounds&quot;:{&quot;x&quot;:217.00596087802023,&quot;y&quot;:115,&quot;width&quot;:115.98807824395954,&quot;height&quot;:166.39201852019607},&quot;iconType&quot;:&quot;icon&quot;,&quot;rawIconId&quot;:&quot;4e3e4271-a445-4cf3-adc8-2a954e3eee2d&quot;,&quot;isDetailed&quot;:false,&quot;suitableAsStandaloneIcon&quot;:true}" fill-rule="evenodd" fill="none"><g data-paper-data="{&quot;isPathIcon&quot;:true}" fill="none"><path d="M233.25203,119.98l-0.585,1.567c1.124,0.818 2.012,1.828 2.637,3.049c1.391,2.72 4.135,11.877 8.235,27.471l10.003,38.003c0.597,0.497 1.192,0.998 1.806,1.455c2.772,2.204 5.613,4.203 8.036,5.871c3.121,2.14 6.252,4.147 9.568,6.272c2.44,1.565 4.905,3.143 7.383,4.792c1.222,0.808 2.377,1.603 3.502,2.395l-16.361,-62.62701c-2.244,-8.557 -3.562,-13.814 -3.952,-15.775c-0.391,-1.959 -0.586,-3.659 -0.586,-5.1c0,-2.318 0.561,-4.079 1.683,-5.278c1.56267,-1.75933 4.491,-2.639 8.785,-2.639h1.61v-4.436h-47.58301v4.439c0.745,0.139 1.429,0.327 2.081,0.541z" fill="#80E4E2"></path><path d="M332.99404,119.439c-3.611,0.959 -6.832,4.119 -9.663,9.477c-2.049,4 -5.101,13.396 -9.15,28.192l-17.675,64.25601c-1.389,-1.416 -2.891,-2.823 -4.578,-4.268l16.323,-59.98701c2.343,-8.717 3.781,-14.556 4.319,-17.515c0.537,-2.959 0.806,-5.478 0.806,-7.559c0,-2.4 -0.39,-4.518 -1.17,-6.359c-0.781,-1.838 -1.927,-3.238 -3.441,-4.198c-2.098,-1.359 -4.88,-2.039 -8.345,-2.039v-4.439h32.574z" fill="#80E4E2"></path><path d="M312.65004,272.02802c-0.013,1.192 -0.038,2.379 -0.07,3.558c-0.043,-0.194 -0.083,-0.385 -0.125,-0.58c0.106,0.888 0.205,1.778 0.281,2.668c-1.423,-3.599 -2.882,-7.049 -4.546,-10.159c-1.652,-3.119 -3.478,-5.895 -5.457,-8.252c-1.977,-2.365 -4.123,-4.275 -6.369,-5.853c-2.257,-1.558 -4.623,-2.781 -7.069,-3.775c-4.904,-1.965 -10.107,-3.087 -15.444,-4.217c-5.34,-1.116 -10.83,-2.225 -16.358,-3.919c-5.522,-1.692 -11.096,-3.946 -16.474,-7.233c-5.332,-3.247 -10.715,-7.54 -15.229,-13.801c-2.252,-3.119 -4.267,-6.768 -5.799,-10.873c-0.769,-2.046 -1.396,-4.221 -1.882,-6.444c-0.482,-2.228 -0.798,-4.521 -0.98,-6.803c-0.151,-2.295 -0.167,-4.577 -0.026,-6.813c0.155,-2.234 0.422,-4.417 0.843,-6.512c0.405,-2.099 0.949,-4.111 1.583,-6.022c0.656,-1.898 1.382,-3.729 2.287,-5.337c-1.407,8.036 -1.356,16.219 0.306,23.065c0.411,1.709 0.908,3.345 1.519,4.87c0.598,1.532 1.273,2.978 2.03,4.329c1.51,2.706 3.312,5.043 5.287,7.107c1.975,2.068 4.147,3.823 6.402,5.394c1.14,0.765 2.285,1.518 3.47,2.185c0.582,0.347 1.198,0.669 1.793,1.01c0.609,0.314 1.208,0.65 1.821,0.946c4.871,2.472 9.924,4.325 15.114,5.934c5.189,1.615 10.521,2.967 15.96,4.659c5.428,1.705 11.009,3.736 16.443,7.194c2.707,1.741 5.366,3.855 7.818,6.469c2.452,2.616 4.67,5.748 6.518,9.238c0.208,0.401 0.395,0.821 0.594,1.23c-0.222,-0.578 -0.445,-1.155 -0.691,-1.707l-1.25,-2.708c-0.443,-0.868 -0.904,-1.709 -1.347,-2.558c-0.114,-0.209 -0.22,-0.428 -0.339,-0.63l-0.369,-0.594l-0.733,-1.182c-0.47,-0.805 -1.006,-1.527 -1.521,-2.264c-0.259,-0.366 -0.511,-0.741 -0.774,-1.098l-0.83,-1.018l-0.822,-1.016c-0.275,-0.333 -0.575,-0.634 -0.859,-0.957c-0.581,-0.627 -1.128,-1.293 -1.748,-1.854l-0.902,-0.875c-0.299,-0.293 -0.597,-0.587 -0.917,-0.847c-0.634,-0.529 -1.243,-1.096 -1.875,-1.621c-2.54,-2.092 -5.232,-3.923 -7.989,-5.662c-2.761,-1.739 -5.594,-3.369 -8.484,-5.003c-5.767,-3.264 -11.698,-6.587 -17.54,-10.603c-0.731,-0.488 -1.457,-1.023 -2.184,-1.542c-0.725,-0.534 -1.458,-1.022 -2.175,-1.593l-2.158,-1.673c-0.719,-0.556 -1.428,-1.163 -2.138,-1.754c-1.426,-1.165 -2.819,-2.454 -4.212,-3.722c-0.693,-0.646 -1.372,-1.336 -2.058,-2.003c-0.686,-0.669 -1.367,-1.342 -2.029,-2.072l-1.995,-2.149c-0.662,-0.723 -1.309,-1.54 -1.963,-2.306c-1.324,-1.501 -2.551,-3.253 -3.804,-4.918c-2.427,-3.516 -4.712,-7.339 -6.646,-11.629l-0.706,-1.633c-0.231,-0.548 -0.473,-1.078 -0.672,-1.664l-0.623,-1.722c-0.2,-0.581 -0.428,-1.128 -0.597,-1.739l-0.539,-1.792c-0.176,-0.6 -0.368,-1.182 -0.507,-1.811c-0.153,-0.617 -0.298,-1.237 -0.442,-1.856l-0.214,-0.927l-0.173,-0.954c-0.96,-5.052 -1.322,-10.381 -0.924,-15.506l0.168,-1.911c0.071,-0.633 0.162,-1.258 0.244,-1.884l0.127,-0.934l0.162,-0.921c0.112,-0.613 0.211,-1.225 0.346,-1.824c0.511,-2.403 1.158,-4.707 1.928,-6.885c0.762,-2.184 1.655,-4.236 2.64,-6.15c1.002,-1.895 2.071,-3.699 3.298,-5.218c-0.772,2.069 -1.408,4.198 -1.956,6.352c-0.552,2.148 -0.989,4.336 -1.327,6.521c-0.32,2.194 -0.574,4.373 -0.672,6.551c-0.033,0.542 -0.027,1.089 -0.05,1.627l-0.024,0.806l0.008,0.808c0.009,0.538 0.007,1.071 0.023,1.603l0.091,1.588c0.541,8.452 3.093,15.972 6.799,22.228c1.845,3.143 3.943,6.021 6.175,8.713c1.161,1.293 2.277,2.633 3.503,3.832c0.607,0.61 1.182,1.246 1.81,1.834l1.878,1.781c0.617,0.609 1.267,1.153 1.904,1.723c0.642,0.562 1.272,1.145 1.92,1.69c1.313,1.057 2.588,2.194 3.929,3.192c2.634,2.096 5.353,4.025 8.1,5.919c5.506,3.773 11.207,7.244 16.982,11.082c2.884,1.908 5.79,3.958 8.665,6.227c2.869,2.283 5.728,4.77 8.444,7.722c0.675,0.742 1.343,1.521 2.004,2.294c0.334,0.376 0.656,0.795 0.974,1.214l0.957,1.25c0.649,0.804 1.241,1.738 1.85,2.622c0.299,0.454 0.612,0.878 0.893,1.36l0.843,1.447l0.835,1.443c0.265,0.501 0.518,1.019 0.774,1.527c0.508,1.026 1.039,2.013 1.467,3.122l0.673,1.617l0.333,0.806c0.106,0.274 0.199,0.561 0.298,0.839c0.385,1.128 0.793,2.229 1.146,3.366c1.392,4.58 2.283,9.375 2.815,14.156c0.114,1.204 0.236,2.396 0.336,3.588l0.155,3.597c0.019,0.597 0.046,1.191 0.056,1.787z" fill="#80DBE4"></path><path d="M272.36503,247.30801c-1.315,-0.274 -2.643,-0.552 -3.979,-0.841l9.193,34.925h2.416l8.214,-29.859c-4.749,-1.869 -9.858,-2.961 -14.806,-4.008z" fill="#80E4E2"></path></g></g></g></g></svg>